<svg width="30" height="20" viewBox="0 0 30 20" fill="none" xmlns="http://www.w3.org/2000/svg">
  <rect width="30" height="20" fill="#FFFFFF"/>
  <rect y="0" width="30" height="1.54" fill="#B22234"/>
  <rect y="3.08" width="30" height="1.54" fill="#B22234"/>
  <rect y="6.15" width="30" height="1.54" fill="#B22234"/>
  <rect y="9.23" width="30" height="1.54" fill="#B22234"/>
  <rect y="12.31" width="30" height="1.54" fill="#B22234"/>
  <rect y="15.38" width="30" height="1.54" fill="#B22234"/>
  <rect y="18.46" width="30" height="1.54" fill="#B22234"/>
  <rect width="12.6" height="10.77" fill="#3C3B6E"/>
  <g fill="#FFFFFF">
    <circle cx="2" cy="2" r="0.45"/>
    <circle cx="4.6" cy="2" r="0.45"/>
    <circle cx="7.2" cy="2" r="0.45"/>
    <circle cx="9.8" cy="2" r="0.45"/>
    <circle cx="3.3" cy="4" r="0.45"/>
    <circle cx="5.9" cy="4" r="0.45"/>
    <circle cx="8.5" cy="4" r="0.45"/>
    <circle cx="11.1" cy="4" r="0.45"/>
    <circle cx="2" cy="6" r="0.45"/>
    <circle cx="4.6" cy="6" r="0.45"/>
    <circle cx="7.2" cy="6" r="0.45"/>
    <circle cx="9.8" cy="6" r="0.45"/>
    <circle cx="3.3" cy="8" r="0.45"/>
    <circle cx="5.9" cy="8" r="0.45"/>
    <circle cx="8.5" cy="8" r="0.45"/>
    <circle cx="11.1" cy="8" r="0.45"/>
  </g>
</svg>
