<svg width="54" height="15" viewBox="0 0 54 15" fill="none" xmlns="http://www.w3.org/2000/svg">
<path d="M48.1582 12.5824C47.4605 12.5824 46.8791 12.442 46.414 12.1612C45.9611 11.8803 45.6184 11.5079 45.3858 11.044C45.1655 10.5678 45.0553 10.0427 45.0553 9.46886V0H45.6061V9.46886C45.6061 10.177 45.8081 10.7814 46.212 11.2821C46.6159 11.7827 47.2646 12.033 48.1582 12.033C49.0517 12.033 49.7004 11.7827 50.1043 11.2821C50.5082 10.7814 50.7102 10.177 50.7102 9.46886V0H51.261V9.46886C51.261 10.0427 51.1447 10.5678 50.9121 11.044C50.6918 11.5079 50.3491 11.8803 49.884 12.1612C49.4311 12.442 48.8558 12.5824 48.1582 12.5824ZM48.1582 15C47.0198 15 46.0345 14.7558 45.2022 14.2674C44.3821 13.7668 43.7457 13.0952 43.2928 12.2527C42.8522 11.4103 42.6318 10.4823 42.6318 9.46886V0H43.1826V9.46886C43.1826 10.3846 43.3785 11.221 43.7701 11.978C44.1741 12.735 44.7432 13.3394 45.4776 13.7912C46.2242 14.2308 47.1178 14.4505 48.1582 14.4505C49.1985 14.4505 50.0859 14.2308 50.8203 13.7912C51.567 13.3394 52.1361 12.735 52.5278 11.978C52.9317 11.221 53.1337 10.3846 53.1337 9.46886V0H53.6845V9.46886C53.6845 10.4823 53.458 11.4103 53.0052 12.2527C52.5645 13.0952 51.9342 13.7668 51.1141 14.2674C50.294 14.7558 49.3087 15 48.1582 15ZM48.1582 13.7912C47.2402 13.7912 46.4568 13.5958 45.8081 13.2051C45.1716 12.8144 44.682 12.2955 44.3393 11.6484C44.0088 10.989 43.8436 10.2625 43.8436 9.46886V0H44.3944V9.46886C44.3944 10.1648 44.5351 10.7998 44.8167 11.3736C45.1104 11.9353 45.5388 12.3871 46.1018 12.7289C46.6649 13.0708 47.3503 13.2418 48.1582 13.2418C48.9782 13.2418 49.6637 13.0708 50.2145 12.7289C50.7775 12.3871 51.1998 11.9353 51.4813 11.3736C51.775 10.7998 51.9219 10.1648 51.9219 9.46886V0H52.4727V9.46886C52.4727 10.2625 52.3014 10.989 51.9586 11.6484C51.6282 12.2955 51.1386 12.8144 50.4899 13.2051C49.8534 13.5958 49.0761 13.7912 48.1582 13.7912Z" fill="black" fill-opacity="0.59"/>
<path d="M31.551 15V0H32.0828V15H31.551ZM29.2109 15V0H29.7428V15H29.2109ZM30.381 15V0H30.9128V15H30.381ZM32.721 8.73134V8.17164H36.887C37.5607 8.17164 38.1693 8.01617 38.713 7.70522C39.2685 7.39428 39.7057 6.95274 40.0248 6.3806C40.3558 5.80846 40.5212 5.13682 40.5212 4.36567C40.5212 3.59453 40.3558 2.92289 40.0248 2.35075C39.7057 1.77861 39.2685 1.33706 38.713 1.02612C38.1693 0.715173 37.5607 0.5597 36.887 0.5597H32.721V0H36.887C37.6552 0 38.3525 0.186566 38.9789 0.5597C39.6171 0.920397 40.1194 1.43035 40.4858 2.08955C40.8639 2.73632 41.053 3.49502 41.053 4.36567C41.053 5.23632 40.8639 6.00124 40.4858 6.66045C40.1194 7.30721 39.6171 7.81716 38.9789 8.1903C38.3525 8.55099 37.6552 8.73134 36.887 8.73134H32.721ZM32.721 7.5V6.9403H36.887C37.5725 6.9403 38.1516 6.71642 38.6243 6.26866C39.1089 5.80846 39.3512 5.17413 39.3512 4.36567C39.3512 3.55721 39.1089 2.9291 38.6243 2.48134C38.1516 2.02114 37.5725 1.79104 36.887 1.79104H32.721V1.23134H36.887C37.4425 1.23134 37.9448 1.36194 38.3939 1.62313C38.843 1.87189 39.2035 2.23259 39.4753 2.70522C39.7471 3.16542 39.883 3.7189 39.883 4.36567C39.883 5.01244 39.7471 5.57214 39.4753 6.04478C39.2035 6.50497 38.843 6.86567 38.3939 7.12686C37.9448 7.37562 37.4425 7.5 36.887 7.5H32.721ZM32.721 6.26866V5.70895H36.887C37.2416 5.70895 37.543 5.60323 37.7911 5.39179C38.0512 5.16791 38.1812 4.82587 38.1812 4.36567C38.1812 3.89303 38.0512 3.55099 37.7911 3.33955C37.543 3.12811 37.2416 3.02239 36.887 3.02239H32.721V2.46269H36.887C37.3952 2.46269 37.8266 2.62438 38.1812 2.94776C38.5357 3.27114 38.713 3.74378 38.713 4.36567C38.713 4.98756 38.5357 5.4602 38.1812 5.78358C37.8266 6.10697 37.3952 6.26866 36.887 6.26866H32.721ZM40.3262 15L37.8266 9.23507C37.9093 9.22264 37.9921 9.2102 38.0748 9.19776C38.1693 9.17288 38.258 9.14179 38.3407 9.10448L40.9112 15H40.3262ZM39.0321 15L36.5679 9.36567C36.6625 9.36567 36.757 9.36567 36.8516 9.36567C36.9579 9.35323 37.0584 9.3408 37.1529 9.32836L39.6171 15H39.0321ZM37.738 15L35.2915 9.38433H35.8766L38.323 15H37.738Z" fill="black" fill-opacity="0.59"/>
<path d="M16.6898 15L21.8422 0H22.4088L17.2563 15H16.6898ZM14.2109 15L19.3633 0H19.9122L14.7775 15H14.2109ZM15.4503 15L20.5851 0H21.1693L16.0169 15H15.4503ZM27.0654 15L22.4442 1.54851L22.7275 0.708955L27.632 15H27.0654ZM25.826 15L21.8422 3.37687L22.1078 2.51866L26.3926 15H25.826ZM24.5866 15L21.2225 5.18657L21.5058 4.34701L25.1532 15H24.5866ZM19.5758 10.0373L19.7706 9.47761H22.1078L22.3025 10.0373H19.5758ZM19.1509 11.2873L19.3456 10.7276H22.5327L22.7275 11.2873H19.1509ZM18.7259 12.5187L18.9207 11.959H22.9576L23.1524 12.5187H18.7259Z" fill="black" fill-opacity="0.59"/>
<path d="M12.0871 15V0H12.6316V15H12.0871ZM9.69147 15V0H10.2359V15H9.69147ZM10.8893 15V0H11.4338V15H10.8893ZM2.39564 15V0H2.94011V15H2.39564ZM0 15V0H0.544465V15H0ZM1.19782 15V0H1.74229V15H1.19782ZM9.03811 9.83209L3.59347 1.79104V0.802238L9.03811 8.84328V9.83209ZM9.03811 11.9963L3.59347 3.95522V2.96642L9.03811 11.0075V11.9963ZM9.03811 14.1604L3.59347 6.1194V5.1306L9.03811 13.1716V14.1604Z" fill="black" fill-opacity="0.59"/>
</svg>
