<svg width="24" height="24" viewBox="0 0 24 24" fill="none" xmlns="http://www.w3.org/2000/svg">
<path d="M18.0513 18.0507C17.9279 18.1742 17.7604 18.2435 17.5858 18.2435C17.4112 18.2435 17.2438 18.1742 17.1203 18.0507L7.07198 8.00235L7.07198 15.7232C7.06898 15.8958 6.99831 16.0603 6.8752 16.1813C6.75208 16.3023 6.58637 16.3701 6.41376 16.3701C6.24114 16.3701 6.07543 16.3023 5.95231 16.1813C5.8292 16.0603 5.75853 15.8958 5.75553 15.7232L5.75553 6.41313C5.75556 6.23856 5.82492 6.07116 5.94835 5.94772C6.07179 5.82429 6.23919 5.75493 6.41376 5.7549L15.7238 5.7549C15.8964 5.7579 16.0609 5.82857 16.1819 5.95168C16.3029 6.0748 16.3707 6.24051 16.3707 6.41313C16.3707 6.58574 16.3029 6.75145 16.1819 6.87457C16.0609 6.99768 15.8964 7.06835 15.7238 7.07135L8.00298 7.07135L18.0513 17.1197C18.1748 17.2432 18.2442 17.4106 18.2442 17.5852C18.2442 17.7598 18.1748 17.9273 18.0513 18.0507Z" fill="#D9D9D9"/>
</svg>
